Coordinates
version=1
nRows=17
nColumns=36
inDegrees=yes

Units are S.I. units (second, meters, Newtons, ...)
If the header above contains a line with 'inDegrees', this indicates whether rotational values are in degrees (yes) or radians (no).

endheader
time	pelvis_tilt	pelvis_list	pelvis_rotation	pelvis_tx	pelvis_ty	pelvis_tz	hip_flexion_r	hip_adduction_r	hip_rotation_r	knee_angle_r	knee_angle_r_beta	ankle_angle_r	subtalar_angle_r	mtp_angle_r	hip_flexion_l	hip_adduction_l	hip_rotation_l	knee_angle_l	knee_angle_l_beta	ankle_angle_l	subtalar_angle_l	mtp_angle_l	lumbar_extension	lumbar_bending	lumbar_rotation	arm_flex_r	arm_add_r	arm_rot_r	elbow_flex_r	pro_sup_r	arm_flex_l	arm_add_l	arm_rot_l	elbow_flex_l	pro_sup_l
      1.23333330	      3.21351773	      1.87824558	      9.02601489	     -0.14610985	      1.31453077	      0.34971131	      1.06250109	     -3.17888595	      0.94025176	     13.47146399	      0.23512140	     15.08065354	     -4.73379949	     -7.49701453	      1.04027305	     -3.38236237	     -6.76649889	     13.46430290	      0.23499642	      9.67004964	      0.13898698	     -7.49701453	    -10.39943440	     -0.40625928	      4.25898792	      4.94562265	    -11.33542279	     15.46632222	     29.58409068	     81.60972140	     14.03293830	    -11.41889973	     15.31375080	     19.86381426	     92.45482616
      1.25000000	      3.20653457	      1.83312801	      8.80739776	     -0.14489131	      1.30885786	      0.34966238	      0.90497396	     -3.13920366	      1.09105446	     13.19693474	      0.23032996	     14.90794460	     -4.69338704	     -7.49725096	      0.98729703	     -3.40167290	     -6.95075823	     13.38913104	      0.23368442	      9.72775486	      0.05016509	     -7.49725096	    -10.52756114	     -0.49047059	      4.17290019	      5.11150090	    -11.41884812	     15.58184528	     30.56898677	     81.75799347	     14.52074107	    -11.47475127	     15.42003490	     20.25926059	     93.04270570
      1.26666670	      2.98111405	      1.78373685	      8.63814272	     -0.15539237	      1.30830727	      0.34702080	      1.33968291	     -3.15821126	      1.22388481	     13.47583254	      0.23519765	     14.88028000	     -4.63510290	     -7.49733864	      1.40333586	     -3.38516987	     -7.10233320	     13.58982714	      0.23718723	      9.73862796	     -0.15063397	     -7.49733864	    -10.62252857	     -0.51873268	      3.96429444	      5.79327333	    -11.47994181	     15.63048768	     31.10467495	     81.33177384	     15.18056304	    -11.46255315	     15.46969938	     20.70728741	     92.45395575
      1.28333330	      2.76455514	      1.72494545	      8.49103508	     -0.15364848	      1.30898683	      0.34683254	      1.67070376	     -3.16337014	      1.34548621	     13.53126014	      0.23616504	     14.63099191	     -4.81706482	     -7.49772051	      1.80354303	     -3.36220554	     -7.17101901	     13.74993272	      0.23998160	      9.95336869	     -0.30397167	     -7.49772051	    -10.77662788	     -0.55395282	      4.02231070	      5.85769636	    -11.69934196	     15.82547254	     32.29881130	     81.98574104	     15.85288295	    -11.60782349	     16.84913961	     21.40771974	     94.25450326
      1.30000000	      2.46844341	      1.66095112	      8.36136269	     -0.15450011	      1.31180290	      0.34683454	      2.01964270	     -3.19553592	      1.42279418	     13.39157280	      0.23372704	     14.44509819	     -4.83749648	     -7.49820911	      2.21204894	     -3.32617549	     -7.23289645	     13.76392040	      0.24022573	      9.91683641	     -0.52356083	     -7.49820911	    -10.91972614	     -0.53929008	      3.81983532	      6.13013667	    -11.72800698	     15.69635686	     33.31666889	     80.74289096	     16.03575727	    -11.63742624	     16.87634783	     22.46627424	     92.24575900
      1.31666670	      2.20433342	      1.64859726	      8.25904717	     -0.16229913	      1.31257140	      0.34379189	      2.46981235	     -3.32090631	      1.50259824	     13.32850423	      0.23262628	     14.33099911	     -4.77925012	     -7.49821248	      2.54724959	     -3.19098769	     -7.28464622	     13.70351952	      0.23917153	      9.97303449	     -0.55447231	     -7.49821248	    -11.22438295	     -0.54510418	      3.64230185	      6.63631893	    -11.82388455	     15.63381127	     33.51300413	     80.76182151	     16.65202020	    -11.55000010	     16.88489829	     22.71366637	     92.28383757
      1.33333330	      1.34735566	      1.58514799	      8.06206957	     -0.17167056	      1.31121958	      0.34104800	      4.02208460	     -3.51873381	      1.60056935	     13.84959816	      0.24172109	     14.02202683	     -5.08957253	     -7.49833692	      3.93267762	     -3.04080055	     -7.16020048	     14.29862895	      0.24955815	     10.18660363	     -0.97570668	     -7.49833692	    -11.38058664	     -0.57682733	      3.51314942	      6.86862194	    -12.33014072	     15.34171774	     35.65678699	     81.50235569	     16.78229454	    -11.99244368	     17.59439924	     25.03428155	     93.60234835
      1.35000000	      0.75847645	      1.52061178	      7.90257586	     -0.16028436	      1.30873209	      0.34400131	      4.87083492	     -3.62777307	      1.75309418	     13.86644213	      0.24201507	     13.91373383	     -5.20359842	     -7.49849029	      4.63186550	     -2.93691775	     -7.12746586	     14.40950635	      0.25149333	     10.07337743	     -1.46087891	     -7.49849029	    -11.38578432	     -0.61389880	      3.52029234	      6.79751379	    -12.33567645	     15.10376811	     36.48931209	     80.42395235	     16.63822582	    -11.99177657	     17.21181778	     26.28118018	     92.09597471
      1.36666670	      0.01199836	      1.40140291	      7.90248603	     -0.17043187	      1.30776746	      0.34109482	      6.04901181	     -3.69946492	      1.82725002	     14.07971826	      0.24573744	     13.75777460	     -5.15034496	     -7.49852157	      5.76871283	     -2.89624931	     -7.00279341	     14.84703518	      0.25912965	     10.36925065	     -1.44159585	     -7.49852157	    -11.38567870	     -0.58138409	      3.38630034	      6.81356243	    -12.64047522	     15.01400504	     37.45638356	     80.69296951	     16.79182654	    -12.08910121	     17.39442130	     27.29865959	     92.51753409
      1.38333330	     -0.80099302	      1.31960087	      7.84060438	     -0.16777818	      1.30786938	      0.34078459	      7.34581871	     -3.81354238	      1.91411670	     14.39694283	      0.25127405	     13.67776459	     -5.13609265	     -7.49856922	      6.80954577	     -2.79230953	     -6.94408755	     15.08474332	      0.26327844	     10.50652160	     -1.64816071	     -7.49856922	    -11.40385860	     -0.59371976	      3.51346454	      6.66316558	    -12.90672283	     14.51072910	     38.83744037	     80.97776857	     16.41419579	    -12.36731800	     17.41227053	     29.20398537	     92.98965887
      1.40000000	     -1.38841657	      1.23307570	      7.81413164	     -0.16889267	      1.30757387	      0.34101517	      8.27802616	     -3.87213547	      1.99972416	     14.58177189	      0.25449993	     13.62841237	     -4.99352907	     -7.49874936	      7.69139912	     -2.74296944	     -6.84013568	     15.44384626	      0.26954597	     10.72125630	     -1.88869465	     -7.49874936	    -11.79809624	     -0.62314048	      3.54383180	      6.39277209	    -13.20846761	     13.98940149	     40.22262521	     79.49333080	     15.85587541	    -12.75230674	     17.21895155	     31.43162485	     91.22267667
      1.41666670	     -2.44395358	      1.08642820	      7.86741267	     -0.17602288	      1.30404055	      0.33779127	      9.94113100	     -3.97476244	      2.01030065	     15.20252107	      0.26533405	     13.56829279	     -4.96172374	     -7.49877863	      9.22567108	     -2.68875718	     -6.77392846	     16.04445012	      0.28002848	     11.02732741	     -2.01045871	     -7.49877863	    -11.60000914	     -0.58003669	      3.55260356	      6.22974613	    -13.45977926	     13.45555368	     40.90255157	     79.78700950	     15.28765188	    -13.09470015	     17.12180020	     32.54303783	     91.63465940
      1.43333330	     -3.19747060	      0.98603121	      7.97323548	     -0.17668222	      1.30944433	      0.33771531	     11.12195394	     -4.08487273	      1.99395860	     15.49184371	      0.27038368	     13.44266678	     -4.86203743	     -7.49890124	     10.30354597	     -2.58372831	     -6.66821584	     16.32421477	      0.28491130	     11.14101017	     -2.20723479	     -7.49890124	    -12.06190205	     -0.53368881	      3.39368224	      5.88541270	    -13.46191955	     11.66028940	     42.00478041	     80.91548351	     14.13987507	    -13.54042402	     15.58289085	     34.82172260	     92.74354657
      1.45000000	     -4.25829581	      0.87572135	      8.03255721	     -0.18307832	      1.30887304	      0.33440787	     12.86808334	     -4.24273659	      2.00976783	     16.06978713	      0.28047070	     13.31225546	     -4.70483251	     -7.49892713	     11.86517864	     -2.42432267	     -6.49738080	     16.81559912	      0.29348757	     11.44640830	     -2.31423751	     -7.49892713	    -12.12242057	     -0.56989951	      3.31175361	      5.58620520	    -13.79656900	     11.31432855	     41.92909941	     81.13571135	     13.72677715	    -13.79950799	     15.42083453	     35.14208847	     92.99806631
      1.46666670	     -4.94847167	      0.80605432	      8.14465223	     -0.17484876	      1.30181569	      0.33758576	     13.86403897	     -4.34375666	      2.03673241	     16.18630748	      0.28250436	     13.26444716	     -4.54950536	     -7.49895629	     12.66057791	     -2.24506526	     -6.34728482	     16.78484475	      0.29295081	     11.49011813	     -2.52005739	     -7.49895629	    -12.38828177	     -0.61832191	      3.01135696	      4.68985590	    -13.83859756	     10.78376990	     41.32519520	     81.22426915	     13.22414245	    -14.16247894	     15.27030074	     35.10400073	     93.08682520
      1.48333330	     -5.24673284	      0.72049380	      8.21273828	     -0.18162869	      1.30808250	      0.33428897	     14.35987496	     -4.35678473	      2.16383344	     16.17062399	      0.28223063	     13.17894993	     -4.45307453	     -7.49895958	     13.01518380	     -2.15496142	     -6.36015328	     16.68075433	      0.29113408	     11.54577937	     -2.52798889	     -7.49895958	    -13.39149349	     -0.59844469	      2.72966307	      3.95891231	    -14.11163030	     10.74640817	     40.92420970	     81.20535390	     12.91273906	    -14.33166261	     15.27636789	     34.91016695	     93.05868189
      1.50000000	     -5.99060631	      0.68205475	      8.32479287	     -0.17287675	      1.30713330	      0.33699814	     15.22826476	     -4.47823828	      2.14820386	     16.18612363	      0.28250115	     13.12224194	     -4.16560553	     -7.49905335	     13.60892178	     -1.89771560	     -6.12873799	     16.29945176	      0.28447910	     11.39708968	     -2.61052281	     -7.49905335	    -13.31056336	     -0.70417748	      2.64601295	      3.11040721	    -13.38700797	      8.07313933	     38.06888347	     82.28467236	     12.38647057	    -14.46844780	     15.81062246	     32.70394324	     94.13729949
